<?xml version="1.0" encoding="UTF-8"?>
<svg id="Laag_1" xmlns="http://www.w3.org/2000/svg" version="1.1" viewBox="0 0 32 32">
  <!-- Generator: Adobe Illustrator 30.0.0, SVG Export Plug-In . SVG Version: 2.1.1 Build 123)  -->
  <defs>
    <style>
      .st0 {
        fill: #704787;
      }
    </style>
  </defs>
  <path class="st0" d="M18.4,22.6h-3.1c-.2-.1-.4-3.2-.7-3.4s-.5,0-.6.4c-.3.9-.2,2.1-.4,3-.1.1-.9,0-1.1,0s-1.8.2-1.9,0c0-.3,0-.7,0-1.1.1-3.6,1.3-7.7-1-10.9s-3.6-4.2-5.1-6.4c-.6-1.1.6-2.5,1.8-1.7,1.9,1.6,4.3,6,6.6,6.9,3.5,1.5,5.3-1.5,7.2-3.7s2-2.8,2.8-3.2c1.2-.7,2.4.7,1.7,1.8-1.7,2.7-5.7,5.8-6.2,8.9-.5,3,0,6.3.2,9.3Z"/>
  <path class="st0" d="M14,2.7c3.7-.4,4.4,4.9,1,5.7s-5-5.2-1-5.7Z"/>
  <path class="st0" d="M26.5,28.3v-3.6h.2c0-.2.2-.1.3-.1.2,0,.6,0,.7.1v5.8h-1.2c0,0-2.1-3.8-2.1-3.8v3.6c-.3.3-.8,0-1.1.1v-5.9h1.2c0,0,2,3.7,2,3.7Z"/>
  <path class="st0" d="M12,24.6c.2,0,.7.4.9.6.8,1,.5,2.3-.7,2.9l1.1,2.3c0,.2-1,.2-1.2,0l-1-2h-.9c0,0,0,1.9,0,1.9h-.2c0,.2-.2.1-.3.1-.2,0-.6,0-.7-.1v-5.8c.8.1,2.1-.2,2.8,0ZM10.3,27.4c.9,0,2.1,0,1.8-1.2s-.3-.5-.5-.5h-1.3v1.8Z"/>
  <path class="st0" d="M14.3,24.7c0,0,.1-.1.2-.1h3.2c0,0,0,1.1,0,1.1h-2.3v1.4h1.9c.2.2,0,.8,0,1h-1.8c-.2.1-.2,1.3,0,1.4.8.4,3-.5,2.2,1.1h-3.4v-5.9Z"/>
  <path class="st0" d="M22.2,24.6c0,.3.1.8-.1,1h-2.2v1.3c0,0,0,.1.2.1.3,0,1.4-.2,1.7,0v1c0,0-1.7,0-1.7,0-.2.1-.2,1.3,0,1.4h2.2c0,.1,0,1.1,0,1.1h-3.4v-5.8h.1c0-.1,3.3-.1,3.3-.1Z"/>
  <path class="st0" d="M8.1,24.6c0,.3.1.8-.1,1h-1.4v4.8h-.2c0,.2-.2.1-.3.1-.2,0-.6,0-.7-.1v-4.8h-1.6v-.9c0,0,0-.1,0-.1h4.2Z"/>
</svg>